<svg version="1.2" xmlns="http://www.w3.org/2000/svg" viewBox="0 0 385 12" width="385" height="12">
	<title>image</title>
	<defs>
		<clipPath clipPathUnits="userSpaceOnUse" id="cp1">
			<path d="m0 0h385v12h-385z"/>
		</clipPath>
	</defs>
	<style>
		.s0 { fill: #df6951 } 
	</style>
	<g id="Clip-Path" clip-path="url(#cp1)">
		<g id="Layer">
			<path id="Layer" fill-rule="evenodd" class="s0" d="m57.8-2.5l1-0.2-1.9-0.2 0.9-0.2c0.9 0 2 0.3 2.7 0.1 0-0.1-0.9-0.1-1.2-0.2q-0.3-0.2-0.5-0.4 0.7 0 1.6 0.1c0.7 0.1 1.4 0.1 2 0.1 1.3 0 2.5 0 3.9 0l-0.4-0.3 1.7 0.1c0.2 0 0.5 0 0.6 0 1.6 0.3 2.2 0.1 3 0q0.2 0 0.5-0.1c2.1 0.1 4 0.5 5.8 0.6q0.6 0.1 1 0.2c0.7 0.1 1.4 0.2 2.1 0.3 0.7 0.1 1.4 0.1 2.1 0.1 1.4 0 2.9 0.1 4.5 0.3q0.8 0 1.4 0.1 0.7 0 1.2-0.1l1.1 0.2q0.7-0.1 1.8-0.1 1 0 2.2 0.1 1.2 0.1 2.6 0.2 2.7 0.2 5.2 0.2c2.4 0.1 4.8 0.2 7.3 0.3q2.3 0.1 4.5 0.1c1.8 0 3.7 0.1 5.6 0.2-0.1 0.2-0.9 0.2-1.5 0.2-1.8-0.1-3.7-0.1-5.6-0.2q-1.3 0-2.5 0-2.1 0-4.3-0.1-3.4-0.2-6.7-0.2-0.2 0.1-0.4 0.1-0.1 0 0 0 0 0.1 0.1 0.1 0.1 0 0.2 0 0.1 0.1 0.3 0.1c0.8 0.1 1.7 0.2 2.5 0.2q0.1 0 0.1 0 0.1 0 0.1 0c1.8 0.3 3.3 0.2 4.7 0.3q3.5 0.1 6.7 0.1 0.5 0 1 0c2.3 0.1 4.3 0.1 6.2 0.1 0.7-0.1 1.4-0.1 2.3-0.1q0.7 0 1.2-0.1 0.6-0.1 0.8-0.2 0.5 0.1 1 0.1 0.3 0.1 0.6 0 0.2 0 0.2 0c0.1-0.1-0.4-0.2-0.8-0.2q0.4-0.1 0.8-0.1 2.6 0 5.5 0.1c1.5 0.1 2.7 0 4.3 0.2 0.2 0 0.4-0.1 0.5-0.1q0.7 0 1.7 0 0.9 0 1.9 0.2c0.9-0.3 2.6 0 3.9 0 0.4 0.2 0 0.1 0 0.2-0.1 0 0 0-0.2 0-1.3 0.1-3.1 0.2-5.1 0.1q-0.6 0-1.1 0-0.7 0-1.7 0-1-0.1-1.8 0-0.4 0-0.7 0.1-0.3 0-0.3 0.1 0.3 0.1 0.6 0.1c1.3 0.2 2.5 0.2 3.5 0.2 1.7-0.1 3.8 0 5.7 0q1.8 0 3.8 0.1l-0.1-0.1c0.3 0 0.5 0 0.8 0q0.9 0.1 1.7 0.1 0.8 0 1.4-0.1 0.9-0.1 2.2-0.1 1 0 1.9-0.1c0 0 0.1-0.1 0.4-0.1q-0.4-0.1-0.9-0.1-1.9-0.1-3.7-0.2-0.7 0-1.3 0.1c-1 0-2.3-0.1-3.5-0.1 0 0-0.3-0.1-0.4-0.1 0.3-0.1 1.6 0 2.1-0.1 0.3 0 0.8 0 0.8 0q-0.1-0.1 0-0.1 0 0 0.2-0.1 0.1 0 0.4 0 0.2 0 0.4 0c1.4 0.1 2.8 0.2 3.9 0.1 0.5 0 1 0 1.4 0q0.4 0.1 0.7 0c1.1-0.1 2.5-0.1 4.1 0q1.1 0.1 2.1 0c0.4 0 0.6 0.1 0.9 0.1l1.3 0.1-1.7 0.1c0.4 0.3 0.7 0.3 1.3 0.4q1.3 0 2.5 0c0.7 0 1.2-0.1 2 0q0.2 0 0.4 0c1 0 2.1-0.1 3.4 0 0.7-0.2 1.8 0 2.9 0.1 0.3-0.1-0.3-0.2-0.7-0.2q1.3 0 2.7 0 0.4 0 0.9 0 0.5 0.1 1 0.1 0.2 0.1 0.5 0.1 0.2 0 0.4 0c0.5-0.1 1.2 0 1.6-0.1q0.2 0 0.6 0 0.3 0 0.6 0.1-0.3 0-0.6 0c-0.6 0.1-0.3 0.3 0.4 0.5 1.2 0 2.4 0 3.4-0.1 0.6 0 1.4 0 2.2 0.1 0.7 0 1.5 0.1 2.3 0.3q0.4 0 0.8 0.1 0.5 0 0.7-0.1 0.1 0 0.1-0.1l-0.8-0.1c0 0 0.1 0 0.1-0.1h1.1c0.5 0 1.1 0 1.7 0q1.2 0 2.7 0.1 1.3 0.1 2.6 0.1c0.8 0.1 1.4 0 2.2-0.1q0.9 0 2 0.1c1.1 0 2.2 0 3.1 0 1.1 0.3 1.6 0.4 2.6 0.3h0.4 0.1 0.4q1 0 2 0c0.9 0 2 0.1 2.9 0.2 0.2 0.1 0.5 0.1 0.7 0.2 0.1 0.1 0.5 0.3 0.8 0.4-0.3 0.1-0.7 0.2-0.9 0.3q0 0 0 0 0.1 0.1 0.2 0.1 0.1 0 0.2 0.1 0.2 0 0.4 0 0.3 0 0.6 0 1.4 0.1 2.8 0c0.3 0 0.7 0 1.2 0 0.5 0 1 0.1 1.5 0.2 1.1-0.1 2.5-0.1 3.9 0 1.5 0 3.4 0.1 4.8 0 0 0 0.1 0.1 0.3 0.2q0.5 0.1 1.1 0.2l3 0.1q0.2 0.1 0.4 0.3 0.2 0 0.6 0.1 0.4 0.1 0.7 0.1c0.6 0 1.1-0.1 1.8 0.1-1.1 0.1-2.6 0-4.2-0.1q-2.2-0.1-4.2-0.1c-0.5 0-1.1 0-1.2 0-0.3 0.2-1.1 0.2-2 0.1q-1.1 0-2 0.1-0.8 0-1.2 0.2c0 0.1 0.1 0.2 0.7 0.2l2.7 0.3q0.6-0.1 1.1-0.1 0.9-0.1 2.2-0.1c0.8 0.1 1.6 0.1 2.5 0.2 0.5 0.1 0.9 0.1 1.2 0.1q0.4 0 0.8-0.1 0.1 0 0-0.1 0.3 0 0.6 0.1c1.3 0.3 2.3 0.3 3.2 0.2 0.3 0 0.5-0.1 0.7-0.1 0.3 0 0.4-0.1 0.6 0 1.8 0 2.4-0.3 3.9-0.3q0.1 0 0.1 0 0.1-0.1 0-0.1-0.2 0-0.4-0.1-0.2 0-0.4 0c-0.7 0-1.3 0-1.8 0q-0.4 0.1-0.9 0.1l-1.6-0.5q2.3 0.1 4.2 0c0.3 0 0.8 0.1 1.2 0.1h3c0.6 0 1.1-0.1 1.9 0.1 0 0 0.6 0 0.8 0 0.1 0 0.8-0.2 1.2-0.2 0.4 0 1.1 0.1 1.3 0q0.8-0.1 1.3-0.2l1.8 0.1q0 0.2-0.2 0.4-0.2 0.1 0 0.3 0.3 0.2 0.9 0.4l1.7 0.7q0.5 0 0.9 0.1 0.4 0 0.7-0.1c0.8 0 1.6-0.1 2.4-0.2 1 0.1 0.7 0.3 1.4 0.5l2.3 0.3c0.4 0.3 0.7 0.5-0.3 0.6-0.2 0-0.1 0.1-0.3 0.2 0.8 0.2 1.8 0.2 2.6 0.3q0.5 0.2 0.8 0.3c0.2 0.2 0.7 0.3 1.3 0.4 0.6 0.1 1.3 0.2 1.9 0.2q1.6 0.2 3.2 0.4 0.6 0 1.1 0.1 0.6 0 1 0 1.5 0 2.5-0.2c0.7-0.2 1.6-0.2 2.6-0.2 1.7 0.2 2.1 0.5 3.1 0.8l-1.8 0.1c-0.1 0.1 0 0.2-0.7 0.2-0.7 0-0.4 0.1-0.1 0.2q0.1 0.1 0.4 0.2 0.4 0.1 0.8 0.1l1.5 0.1q0.9 0.1 1.6 0.1 0.6 0 1-0.1 0.4-0.1 1.1-0.2 0.8 0 1.3-0.2l2.2 0.1q0.2-0.1 0.8-0.2c0.5 0 1.1 0 1.7 0.1l1.5 0.1c1.6 0.1 2 0 2.4-0.2l-1.9-0.6q0.4-0.2 0.8-0.4c-0.5-0.1-1.1-0.3-1.9-0.4q-1-0.2-2.1-0.5c-0.8-0.1-1.7-0.2-2.7-0.4q-0.2-0.1-0.7-0.2-0.5-0.1-1-0.3c0.1-0.1 0.1-0.2 0-0.3q0.9 0.1 1.8 0.2 0.9 0.2 1.6 0.4 0.1 0 0.3 0 0.1 0 0.3 0.1c1 0 1.6 0.2 2.1 0.4 0.3 0.1 0.8 0.2 1.3 0.3q1.4 0.2 2.8 0.4 0.4 0 0.8 0.1 1.5 0.1 2.8 0.3 0.5 0.1 0.9 0.2 0.3 0.1 0.6 0.2-0.4 0.1-0.4 0.2c0 0.1 0.6 0.2 0.9 0.3 0.4 0.1-0.3 0.1-0.5 0.1-0.8 0-1 0-0.5 0.3q0.3 0.1 0.4 0.2 0 0.1-0.1 0.1c-0.1 0.2-0.5 0.4-0.7 0.6 0.4 0.1 1 0.3 1.1 0.4q0 0.1 0.2 0.2 0.2 0 0.4 0.1 0.6 0.1 1.1 0.2 0.5 0.1 0.7 0.3 0.1 0 0.3 0.1 0.3 0.1 0.5 0.1 0.4 0 0.6 0 0.2-0.1 0.1-0.1 0.1-0.2 0-0.3c0 0 0-0.1-0.1-0.2 0.6 0 1.3 0.1 2 0.2q0.9 0.2 1.6 0.4c0.5 0.1 1 0.3 1.5 0.4-0.1 0.2-0.1 0.2 1 0.6l6.2 0.1 1.2 0.2c1.2 0.2 1.5 0.2 2.2 0.1l0.5-0.1c1.1 0.2 2.3 0.3 2.9 0.1 0.2 0.1 0.4 0.2 0.3 0.2q-0.5 0.4-1.6 0.6c-0.2 0-0.3 0.1-0.5 0.1-0.7 0.2-0.9 0.5-0.5 0.8q0.3 0.2 0.9 0.4-0.9 0.3-2.2 0.5-1.2 0.2-1.9 0.4-0.7 0.3-1.9 0.4-0.7 0-0.9 0.2-0.1 0.3 0.3 0.7 0.1 0.1 0.4 0.3 0.4 0.1 0.9 0.2c0 0 0.2 0.1 0.3 0.1q0.1 0.4-0.8 0.8-0.1 0-0.5 0.1-0.4 0-1 0c-0.7-0.1-1.4-0.1-2.2-0.1-0.8 0-1.5 0-2 0.1q-0.8 0.1-1 0.3 0 0.1-0.1 0.1 0 0 0 0.1l1.7 0.5-1.9 0.1c-0.1 0.2 0.8 0.3 1.2 0.5l-0.2 0.1c-0.4 0-0.9-0.1-1.3-0.1l-0.5-0.1v0.1c-0.3 0.1-1.3 0-1.7 0.1-0.4 0.1-0.1 0.2 0.5 0.3q0.6 0.1 1.3 0.1 0.6 0.1 1.2 0.1 0.3 0 0.5-0.1 1.2-0.2 2.6-0.3c0.8-0.1 1.7-0.2 2.7-0.1q0.5-0.1 1.1 0 0.5 0.1 0.9 0.2h0.5c0 0 0.3 0.1 0.3 0.1q-0.3 0.4 0.7 0.8h-0.6c-0.8 0-0.3 0.2-0.4 0.3-0.5 0-1.3-0.1-1.5 0l0.6 0.1c-0.3 0.1-0.6 0.1-0.9 0.1q-0.3 0-0.4 0.1-0.1 0-0.1 0.1 0 0.1-0.3 0.2-0.3 0-0.8 0c-0.3 0-0.6 0.1-0.8 0.1l1 0.5q0 0 0 0l0.4 0.1c0.4 0.1 0.7 0.1 0.9 0 0.3-0.1 0.2 0 0.3 0 0 0.1-0.3 0.1-0.5 0.2q-0.4 0-0.9 0.1c0.6 0.3 0.6 0.3-0.2 0.4-0.9 0.1-0.6 0.2-1.3 0.2-0.8 0 0.1 0.2 0.6 0.3q0.5 0 1 0.1 0.5 0.1 1 0.2l-0.2 0.2q-0.3 0-0.6 0c-0.7-0.2-1.4-0.3-2-0.2l0.3 0.2-2.1-0.1c0 0.1 0.3 0.3 0.9 0.4q-0.1 0.1-0.2 0.2c0 0.1-0.2 0.1-0.4 0.1q-0.7 0-1.2 0.1-0.4 0.1-0.4 0.3c0 0.1 0.7 0.3 1.2 0.3 1.2 0 2.5 0 3.8 0.2 0.8 0 0.9-0.3 2.2-0.1q0.1 0.2-0.4 0.3c-0.4 0-0.9 0-1.4 0 0.3 0.3 2.1 0.3 2.2 0.6q-0.7 0-1.4-0.1-0.7-0.1-1.3-0.3-0.1 0-0.2 0-0.2-0.1-0.4-0.1-0.1 0-0.3 0-0.1 0-0.2 0.1 0.4 0.1 0.9 0.3c0.3 0.1 0.3 0.1 0.6 0.1 1.6 0.3 2.4 0.6 3.9 0.9 0.4 0 0.4 0.2 0.1 0.1q-0.5 0-0.8 0.1-0.4 0-0.5 0.1-0.3 0.1-0.9 0.1c1.5 0.4 3.3 0.7 5.2 1q0.5 0.1 1 0.1 1.6 0 3.4 0.1 0.6 0 1.1 0c1.1-0.1 1.9 0 2.7 0.3l1.3 0.5c0 0-0.3 0.1-0.4 0.2l1 0.3 7.7-0.6 1.5 0.5h2.3q0.2 0 0.5 0.1c0.4 0.1 0.8 0.3 1.3 0.4 0.4 0.2 1.3 0.2 1.9 0.4 0.6 0.2 1.2 0.2 2 0.3q0.1 0.2-0.2 0.3c-0.1 0.1-0.5 0.2-0.5 0.3q0 0.2-0.5 0.3-0.4 0.1-1.1 0.1-2.1 0.4-5 0.5-0.3 0-0.4 0.1-0.2 0-0.2 0.1 0 0.1-0.4 0.2-0.4 0.2-1 0.2-0.2 0-0.3 0-0.3 0.1-0.4 0.1-0.1 0.1 0 0.1 0.1 0.1 0.4 0.2 0.2 0.1 0.6 0.1 0.4 0.1 1 0.2c-0.1 0-0.4 0-0.3 0.1q0.2 0.1 0 0.2-0.1 0.1-0.5 0.2l1.9 0.8c1.1 0.1 2.2 0.3 3.1 0.5q0 0.1-0.2 0.1-0.1 0-0.4 0c-0.4 0-0.9 0.1-1.4 0.1q-0.4 0-0.7 0.1-0.3 0-0.3 0.1l1.1 0.3c-0.4 0.1-0.6 0.1-0.9 0.2q0.2 0.1 0.7 0.2 0.4 0.2 1.1 0.3 0.1 0 0.3 0 0.1 0 0.3 0c0.8-0.1 1.8 0.1 2.7 0.3 1 0.1 1.5 0.2 2.2 0.4h1.4q0.5 0.1 0.9 0.2 0.3 0.1 0.5 0.2c-0.1 0.1-0.7 0.1-1.1 0.1-0.9 0.1-2.1 0.1-3.4-0.1-0.3 0-0.6 0-0.9 0q-1 0.1-1.9 0.1-0.6 0.1-1.2 0.1c-0.1 0.2 1.4 0.3 0.6 0.4 0.3 0 0.4 0.1 0.5 0.1 0.9 0.1 1.9 0.1 2.7 0.1 1.5 0 3.3 0 5.1 0.2 1.9 0.2 3.8 0.2 5.4 0.2q1 0 2.1 0.1 1.3 0.1 2.5 0.2 0.4 0 0.8 0 0.4 0.1 0.9 0.1c-0.1 0.1-0.3 0.1-0.3 0.1 0.8 0.3 1.2 0.6 2.4 0.9 0.9 0.1 1.9 0.2 2.4 0.1 0.6-0.1 0.4-0.3-0.7-0.6q0.3 0 0.8 0 0.4 0.1 0.7 0.2l1 0.3 0.9 0.2q-0.2 0.2-0.2 0.3-0.2 0.2 0.3 0.4 0.2 0.1 0.4 0.3 0.9 0.4 0.5 0.8-0.7 0.5-2 1c-0.8 0.2-1.3 0.6-2 0.9q-0.6 0.2-1.4 0.4c-1 0.2-2.1 0.4-3 0.7-1 0.2-2.2 0.4-3.3 0.6q-2.4 0.4-5.3 0.6c-1.2 0.2-2.4 0.3-3.5 0.5q-1.9 0.3-4.4 0.4-2.3 0.2-4 0.5-0.2 0-0.3 0.1c-0.2 0.1-0.8 0.3-1.7 0.3q0.1 0.1 0.2 0.2 0.2 0.1 0.1 0.2-0.1 0.1-0.5 0.1-1 0.1-1.7 0.3-0.2 0-0.3 0.1 0 0.1 0.2 0.1 0.1 0.1 0 0.2-0.2 0.1-0.5 0.1-0.9 0.1-1.9 0.1c-1.4 0.1-3.1 0.1-4.8 0-0.2 0-0.4 0.1-0.6 0-1.3-0.1-2.5-0.1-3.4 0q-1.7 0-3.4 0-2.5 0-4.6 0.2c-1.6-0.1-2.4 0-3.8 0q-1.8 0.1-3.4 0.2-2.7 0.1-5.2 0.2-2.5 0.1-4.5 0.3c-0.5 0.1-1.4 0-1.8 0.1-0.3 0.1-1 0.1-1.6 0.2l-1.8 0.1q-0.4 0-1 0c-1.6 0-2.8 0.2-4.3 0.2h-0.2c-2.8 0.3-5.9 0.4-9.3 0.4-2 0.1-4.2 0.1-6.4 0.2-0.5 0.1-1.7-0.1-2.3 0.1-0.7 0.1-1.7 0-2.5 0-0.9 0-1.7 0.1-2.6 0.1q-1.1 0-1.8 0.1-1.6 0.2-3.9 0.3c-1.9 0-3.8 0.1-5.8 0.1q0.1 0.1-0.3 0.2-0.4 0.1-1.1 0.1c-2.2 0.1-4.1 0.2-6.3 0.2h-0.5l-6.5 0.1c-1.7 0-3.4 0-5.1 0-0.7 0-0.7 0.1-1.2 0.1q-0.2-0.1-0.5-0.1v0.1l-7.4 0.1q-4.3 0.1-9 0.1-1.2 0-2.1 0.1-0.9 0-1.9 0-1.3-0.1-2.5-0.1-3.2 0.1-6.8 0c-2.3 0-4.1 0.1-6.2 0.1-1.4-0.1-2.8-0.1-4.3-0.1-0.7 0-1.6-0.1-2.3-0.1-0.7-0.1-1-0.1-1.1 0-0.3 0.1-1.1 0-1.7 0-1.3 0-1.4 0-1.8-0.4l1.5-0.1q0.6-0.1 1.4 0 0.8 0 1.6 0.1 0.3 0.1 0.7 0.1 0.3 0 0.6 0 2.3 0 4.5-0.1h0.2v-0.3q-0.3 0-0.6-0.1l-7.4-0.2c-1.7 0-3.4-0.1-5.1-0.2-1.7 0-2.6 0-3.9-0.1q-0.8 0-1.6-0.1 0 0 0-0.1c0.1 0 0.1-0.1-0.1-0.2-0.3 0-0.7-0.1-1-0.1q-0.5-0.1-1-0.1c-1.5 0-3.2-0.2-4.8-0.4l-0.5 0.1q-3.5-0.1-7.2-0.2-0.8-0.1-1.5-0.2c-0.6-0.1-1.1-0.2-1.6-0.3q-0.9-0.1-1.7-0.1 0.2-0.1 0.6-0.1 0.3 0 0.5-0.1 0.1-0.1-0.1-0.2c-0.1-0.1-0.2-0.2 0.2-0.2q0.5 0 0.7-0.1 0.2-0.1 0-0.3-0.1-0.1-0.2-0.2h-0.1c-0.5-0.2-1.6-0.3-2.3-0.4q-0.6-0.1-1.1-0.1c-0.8 0-1.6-0.1-2.5-0.1q-0.6 0-1.2-0.1c-0.6-0.1-0.7-0.1-1-0.4 0.5 0 0.9 0 1.2-0.1q0.4-0.1 0.1-0.3c-0.4-0.3-0.9-0.6-2.9-0.8q1 0 1.9 0 0.2 0 0.4-0.1 0.1 0 0-0.1-0.1-0.1-0.4-0.1-0.2-0.1-0.6-0.1c-1-0.2-2.2-0.3-3.2-0.4-0.9 0-1.6 0-2.7 0l-1.2-0.1c0.1 0-0.1-0.1-0.1-0.1q0.5-0.3 1-0.5-0.8-0.2-1.4-0.4-0.5-0.2-0.6-0.3 0-0.1 0.1-0.1 0-0.1 0.2-0.1 0.5 0 0.7-0.1 0.2-0.1 0.2-0.2l-1-0.4q-4.2-0.3-8.2-0.4l-2.4-0.1c-0.3-0.1-0.2-0.1 0.1-0.1 0.3 0 1 0 1.6 0q0.7 0 1.2 0 0.4-0.1 0.6-0.2l-0.8-0.4c0 0 0.1-0.1 0.5-0.1q0.5 0 0.6-0.1 0.2-0.1 0-0.2 0-0.1 0.1-0.2 1 0 1.9 0 0.4 0 0.6 0 0.3-0.1 0.4-0.2 0-0.1-0.2-0.2-0.2-0.1-0.5-0.2c-1 0-1.8 0-2.4 0q-0.3 0.1-0.9 0.1-0.7 0-1.4-0.1c-0.5 0-1.1 0-1.5 0q-0.7 0-0.9 0.1-0.8 0-1.5-0.1-0.9 0-1.6 0-1.1 0-2.3 0c-2.4-0.1-4.7-0.2-7-0.2-0.6 0-1.2 0-1.8 0-0.6 0-1 0-1.8-0.1q-0.2 0-0.4 0-0.2 0-0.3 0c-1.4 0.1-2.9 0.1-4.6 0-2.3 0-4.6 0-6.9-0.1q-1.1 0.1-2 0.1-0.6 0-1.4 0.1c-0.3 0-0.7-0.1-0.6 0.1 0 0.1-0.5 0-0.9 0q-1.6-0.1-3.4-0.3c-1.1-0.1-2.2-0.1-3.3-0.1-0.7 0-1.5 0-2.4-0.2 0 0 0.1-0.1 0.3-0.2-0.8-0.1-1.7-0.3-2.6-0.4-0.9-0.1-1.9-0.2-2.7-0.2l-1.2-0.4q-0.5 0-0.9 0-0.5-0.1-0.8 0-0.3 0-0.6-0.1-0.4 0-0.6-0.1-0.4-0.1-0.8-0.1-0.5-0.1-0.9-0.1c-0.8 0-1.6-0.1-2.5-0.2q-0.3-0.2-0.4-0.3 0-0.1 0.2-0.1 0.4-0.1 0.4-0.3 0-0.2-0.3-0.3-0.1-0.2-0.1-0.2 0.1-0.1 0.3-0.2c0.7-0.2 0.5-0.3-0.5-0.6q-0.3-0.1-0.7-0.2-0.3 0-0.7-0.1-0.9 0-1.7-0.1c-0.3 0-0.7 0-1 0-1.8-0.1-2.1-0.2-2.7-0.5l-0.4-0.1q-1.2-0.3-2.6-0.4-1.3-0.2-2.5-0.2-0.5 0-1.1-0.1c-1.1-0.1-2.3-0.2-3.4-0.3-0.7 0-1.5-0.1-2.2-0.2-0.7-0.1-1.3-0.2-1.8-0.4-0.5-0.1-1.1-0.2-1.7-0.3-0.8-0.1-0.9-0.2-0.4-0.3 0.4-0.1 1.1-0.2 1.7-0.3q0.4 0 0.4-0.1 0.1-0.1-0.2-0.2-0.1-0.2 0-0.4 0-0.1-0.1-0.2-0.1-0.1-0.4-0.1-0.3-0.1-0.6-0.2-0.4-0.1-0.8-0.1c-1.2-0.2-2.4-0.3-3.5-0.4q-0.8-0.1-1.5-0.2-1.5-0.3-3.2-0.4c-0.5-0.1-1-0.2-1.3-0.3q-1.8-0.4-3.3-0.8-0.4-0.2-0.9-0.3-0.6-0.1-1.2-0.2c-0.4-0.1-0.7-0.2-0.9-0.2q-0.3-0.2-0.1-0.4 0.2-0.2 0.9-0.3 0.7 0 1.3-0.2 0.7 0 1.6-0.1c0.7 0 1.3-0.1 1.5-0.2-1.9-0.3-3.8-0.6-5.6-0.5l-1.3-0.3q0.1-0.1 0.1-0.2 0.5-0.2 0.3-0.5-0.1-0.1 0.1-0.2 0.1-0.1 0.6-0.2c1.9-0.2 4.1-0.4 5.8-0.6q0.8-0.1 1.9-0.1c0.7 0 0.7-0.1-0.1-0.3q-0.7-0.1-1.4-0.2c-2 0-2.8 0.3-5.1 0.2l-1.1-0.4q-0.4-0.1-0.9-0.1l-3.8 0.2q-0.5 0.1-0.8 0.1-0.2 0.1-0.1 0.2 0.1 0.2-0.1 0.3-0.2 0.1 0.1 0.2c0.4 0.2-0.1 0.2-0.4 0.2q-0.2 0.1-0.3 0-0.2 0-0.3 0-0.2 0-0.4 0-0.1-0.1-0.2-0.1c-0.6-0.2-1.1-0.3-1.7-0.5 0.4-0.2 0-0.5 0.6-0.6q0.1-0.1 0.1-0.1 0-0.1-0.2-0.2-0.4-0.1-0.4-0.3 0.1-0.2 0.5-0.2l0.1-0.1c-0.8-0.2-0.6-0.4-0.9-0.6l-0.8-0.1c-1.9-0.4-1.9-0.4-3.5-0.4-0.3-0.1 0.1-0.1 0.4-0.1l2.6-0.2c1.7-0.1 3.5-0.1 5.4-0.2 1.9 0 4.1-0.1 6.1-0.2q0.1 0 0.2-0.1 0.1 0 0 0-0.1-0.1-0.3-0.1-0.2-0.1-0.4-0.1-0.9-0.1-1.9-0.2l-1.3-0.1-0.4-0.1c-0.2-0.1-0.4-0.2-0.7-0.3q-0.4-0.1-0.9-0.1-0.4-0.1-0.8 0c-0.6 0-1.2 0-1.8 0.1-0.6 0-0.9 0.1-1.4 0.1q-1.6 0-3.1 0-1.2 0.2-2.3 0.4c-0.4 0-0.8 0.1-1.5 0q-0.6-0.1-0.9-0.2-0.3-0.1-0.2-0.2 0-0.1 0.3-0.1 0.3-0.1 0.7-0.1 1.1 0 2-0.1 1.3-0.1 3.1-0.1c0.4 0 0.7 0 1 0 0.4-0.1 0.7-0.1 1.1-0.1 1.2 0.1 1.7 0 2.5-0.1q0.3 0 0.4-0.1 0.1-0.2-0.2-0.3-0.5-0.2-1.2-0.5-0.4-0.1-0.9-0.2-0.6-0.1-1.2-0.2-0.3-0.2-0.4-0.3 0-0.1 0.4-0.2c0.6-0.2 1.1-0.3 2.4-0.2q0.9 0 1.7 0c1.2 0 2.5 0 3.9 0.2q0.5 0 1 0c2.4 0.1 4.7 0.1 7 0.2 1.2 0 2.4 0 3.7 0 3 0.1 5.7 0 8.5 0.1 1.5 0 2.9-0.1 4-0.2q0.3-0.1 0.6-0.1c-0.8-0.2-1.6-0.3-2.4-0.4-0.8 0-1.6-0.1-2.2 0q-0.6 0-1.4 0-0.8-0.1-1.6-0.2h1.5c1 0 2.1-0.1 3.1-0.1 1.6 0 3.1-0.1 4.7-0.2q2 0 3.5-0.2 1.1-0.1 2.5-0.2c0.7 0 0.7 0 1.1-0.2-0.3-0.1-0.8-0.2-1.2-0.2q-3.6-0.1-6.9 0-1.6 0-2.8 0.2c-0.2 0-0.7 0-1.1 0q-1.9-0.1-3.5 0c-1.6 0-3.3 0-5.2-0.1-0.3-0.1 0.1 0 0.1-0.1 1.4 0 2.8-0.1 4.3-0.2q0.6 0 1.2 0c1.7 0 3.1-0.1 4-0.3 0.1 0 0.7 0 0.9-0.1q0.2 0 0.3-0.1c-0.4-0.2-0.8-0.2-1.2-0.2q-1.4 0.1-2.8 0.1-1.3 0.1-2.8 0.1c-0.7-0.1-1.3 0-2.1 0q-0.6-0.1-1.2-0.1 0.7-0.2 1.9-0.2c0.5-0.1 1.3-0.1 1.4-0.2-0.3-0.2-0.6-0.2-0.9-0.1q-0.7 0-1.4 0-1.5 0-3.3 0-0.9 0-1.7 0-1.8 0-3.4 0.1c-2.3 0-4.3 0.1-6.5 0.2-0.5 0-0.9 0-1.5-0.1-0.7 0-0.7 0-0.8-0.1q-0.2-0.1-0.1-0.2 0.2-0.1 0.7-0.1 2.9-0.1 5.5-0.3 1.1-0.1 1.9-0.2 0.7-0.1 1.6-0.1 1.2-0.1 2.6-0.1 0.6 0 1.1-0.1 0.4-0.1 0.5-0.2l-1.1-0.3q-0.3 0-0.5 0l-9.3 0.2h-0.9c-1-0.1-1.3-0.1-2.2-0.4 2.2-0.1 3.9-0.3 4.9-0.7q-0.3 0-0.7-0.1c-1.8-0.1-3.4-0.1-4.9-0.1q-1.3 0-2.7 0c0.2-0.1 1.3-0.1 1.9-0.1q2.4-0.1 4.2-0.4 0.6-0.1 1.5-0.1 0.9 0 1.4-0.1 0.6-0.1 0.6-0.3 0.1-0.2 0.4-0.3c-0.3-0.2-0.9-0.3-1.5-0.4-0.6-0.1-1.2-0.2-1.8-0.2q-1.9-0.1-3.8-0.3-1-0.1-1.9-0.1c-0.5 0-1.1 0-1.7-0.1-0.5-0.1-1-0.2-1.4-0.3q-0.8-0.2-1.5-0.4c-0.5-0.2-1.1-0.4-1.6-0.6q-0.8 0-1.5 0-0.6 0-1.2-0.1-0.7-0.1-1.3-0.2 0.4-0.1 0.8-0.2-0.6-0.2-0.8-0.4-0.2-0.2-0.1-0.3c0.1-0.1-0.3-0.3-0.4-0.4q-0.3-0.1-0.1-0.3 0.1-0.1 0.7-0.1 0.6-0.1 1-0.2 0.2 0 0.2-0.1 0 0-0.2-0.1-0.1-0.1-0.4-0.1-0.2-0.1-0.5-0.1-0.8-0.1-1.6-0.1-1.4-0.1-2.6-0.1c-1 0-2 0-3-0.2-0.9-0.1-1.8-0.2-2.2-0.4-0.4-0.2-1.2-0.2-1.7-0.4q0.5-0.2 1.6-0.3 0.7 0 1.2-0.1 0.4-0.1 0.5-0.2l-1.7-0.5c-1.3-0.2-2 0-3.5-0.1l1.5-0.2q0 0 0 0c-0.1-0.4-0.3-0.4-1.9-0.6l-0.8-0.1-1.4-0.1q-0.3-0.1-0.4-0.2-0.1-0.1 0.1-0.2 0.2-0.1 0.1-0.3-0.2-0.1 0-0.2 0.2-0.1 0.6-0.1c0.3 0 0.3-0.1 0.4-0.1q0.2-0.1 0.7-0.2 0.4 0 1.1 0 1.8 0 3.4-0.1h-0.2q1.7 0.1 3 0c1-0.1 2.1 0 3.1-0.1 0.8 0.1 1.4 0 1.7-0.1 0.2-0.2 1.2-0.1 2-0.1q0.7 0 1.3 0c0.6 0 1.3 0 2 0.1q0.3 0 0.6 0 2.8 0.1 5.5 0.1 0.7 0 1.5 0.1 0.3 0 0.5 0c2.9-0.1 6.2 0.1 9 0q0.5 0 1.1 0c0.9 0 1.7 0 2.3-0.1q0.4-0.1 1.1-0.1 0.6 0 1.4 0.1c0.9 0.1 1.6 0.1 2.3 0q1.8 0 3.9 0 0.6 0 1-0.1 0.5 0 0.6-0.1c-0.3-0.2-0.7-0.2-1-0.2q-2 0-4-0.1-1.8 0-3.4 0c-0.5 0-1.2 0-1.8-0.1-0.8-0.1-1.6-0.2-2.3-0.1q-0.7 0-1.6-0.1-0.5 0-1-0.1-0.2 0-0.4-0.1-0.3 0-0.5 0-0.2 0-0.3 0-0.2 0-0.2 0.1c-0.6 0.1-1.7 0-2.7 0-1.4-0.3-2.5-0.1-3.9-0.3q-0.1 0-0.3 0-0.1 0-0.2 0c-2.7 0.1-5.7 0-8.5 0.1q-0.5 0-1-0.1c-2.4-0.2-4.7-0.3-6.4-0.2q-0.3 0.1-0.7 0c-1.2-0.1-2.4-0.1-3.3-0.1-1.6 0-3.1 0-4.7 0-1.1 0-2 0-2.7 0.1-0.1 0-0.6 0-0.9 0-0.2-0.1-0.4-0.2-0.6-0.3q-0.3-0.1-0.9-0.3-0.6-0.2-1.3-0.3c-0.8-0.1-0.9-0.2-0.3-0.3 1.5-0.2 3.3-0.2 5.4-0.2q2.7 0 5.4 0c1 0 2.1 0.1 3.1 0.1q0.5 0 1.1 0 0.6 0.1 1.2 0.1c1.3 0 2.7 0 4.1 0.1q0.8 0 1.6 0 1.7 0 3.7 0.1 1.2 0 2.4 0c0.3 0 0.5 0 0.7 0 2.3 0.2 3.9 0.1 6 0.1q1.5 0.1 2.8 0 2.7 0 5.4 0.1c2.4 0.1 4.7 0.1 7 0.1q0.7 0 1.3 0 3.1-0.1 6.7 0 0.8 0 1.4 0 0.6-0.1 0.9-0.2 0.1-0.1-0.1-0.2-0.5-0.2-1-0.3l-13.2-0.3q-0.8 0-1.6 0-2.3 0-4.7-0.1c-1.6-0.1-3.1-0.1-4.7-0.1q-0.7 0-1.4 0-4.9-0.2-9.4-0.2c-1.3 0-2.7-0.1-4-0.1-1.3 0-3.1 0-4.7 0h-4.8q-1.4 0-2.8 0c-1.1-0.4-1.5-0.5-3-0.7q-0.7-0.1-1.5-0.1c-1.4 0-3.3-0.1-4.7-0.1-0.8 0-1.6 0-2.1 0.1q-0.6 0.1-1.5 0.2c-1.5-0.3-1.7-0.6-0.5-0.7 0.3 0 0.7 0 1 0q0.2-0.1 0.5-0.1 0.3 0 0.7 0.1c0.8 0 1.5 0 2.1 0 0.6 0 1.3 0 2.1 0 0.6 0.1 1.1 0 1.6 0 0.5-0.1 0.9-0.1 1.6-0.1q0.2 0.1 0.4 0.1 0.2 0 0.4 0c0.8-0.1 1.8-0.1 2.8 0q2.5 0.1 4.6 0 1.2-0.1 2.1-0.3 0.2 0 0.6 0c1.4 0 2.9 0.1 4.4 0.2q0.9 0.1 1.7 0.2 1.8 0.1 3.3 0.1 2.3 0 4.8 0.1 1.5 0.1 2.9 0 1.4 0 3 0.1c1 0.1 1.9 0 2.6-0.1q0.4 0 0.6-0.1c-1.6-0.2-3.2-0.4-4.5-0.3-0.5 0-0.9 0-1.4-0.1q-0.2 0-0.5 0-0.3 0-0.5 0 0.1-0.2 0.2-0.3 1.5 0 2.9 0c0.8 0 1.8 0.1 2.5 0.1 1.4 0.1 2.2-0.1 3.4 0 1.2 0 2.5 0.1 3.7 0.2q1.6 0 3.1 0 0.5-0.1 1.1 0 0.9 0 1.6 0 0.7 0 0.9-0.2-0.2-0.1-0.6-0.3c0.5-0.1 1.1-0.1 1.9-0.1h1.1q0.5 0 0.7-0.1 0.1-0.1-0.1-0.2c-2.1-0.3-2.2-0.4-3.7-0.1l-2.1-0.1zm89.8 2.9h0.1q0 0 0 0-0.1 0-0.1 0zm0 0q0.3 0.1 0.5 0.1 0 0 0.1 0-0.2-0.1-0.3-0.1h-0.2c0 0-0.1 0-0.1 0zm174 21.9h-0.1-0.1 0.2q0 0 0 0zm-0.4 0h0.2zm-1.4 1.2c-0.1 0-0.2 0 0 0zm0 0q0.1 0 0.2 0h-0.2zm24.2 13.1v0.1-0.1zm0.3 0.1v-0.1h-0.3zm-50.8-26.8q-0.7-0.1-1.5-0.2-0.2 0-0.3 0-0.2 0-0.3 0c0 0.1 0.3 0.1 0.5 0.1q0.5 0.1 1 0.1 0.4 0 0.7 0h0.3zm-252.8 16.2l0.1 0.1q0-0.1 0-0.1 0 0-0.1 0zm0.9 0c1.3 0 2.5-0.1 3.8-0.1 1.6-0.2 3.5-0.2 5.5-0.2 0.8 0 1.5 0 1.9-0.1q0.5-0.1 1.1-0.1l5.4-0.1q0.5-0.1 0.8-0.2-0.7-0.1-1-0.1-0.6 0-0.9 0.1c-0.3 0-0.8 0.1-1.3 0q-0.8 0-1.6 0-1.5 0-3 0c-0.4 0.2-1.5 0.1-2.5 0.1h-0.7q-3.7 0.2-7 0.4-0.7 0.1-1.1 0.2-0.2 0-0.2 0.1 0.5 0.1 0.8 0zm108.8 18.3q0 0 0 0-0.1 0-0.1 0zm1.7 0.1q0.8 0 1.4 0.1 3.8 0 7.8 0.3 0.5 0 1 0h2.2c0.7-0.1 0.7-0.1 0.2-0.4q-0.6-0.1-1.3-0.1c-0.2-0.1-0.6-0.1-0.7-0.1-0.6 0.2-1.7 0.1-2.6 0-2.6 0-5.2-0.1-7.9-0.2q-0.8-0.1-1.6-0.1-0.5 0-0.8 0.1-0.2 0-0.2 0-0.1 0-0.1 0 0 0.1 0 0.1 0.1 0 0.2 0 0.3 0.1 0.6 0.2 0.9 0 1.8 0.1zm17.2-42.9l2.6-0.1c0.3 0 0.6 0 0.9 0 1.7 0.1 3.4 0 4.8 0q0.7-0.1 1.7-0.1 2.8 0.1 5.3 0 1.6 0 2.9-0.1 0.1 0 0.1 0 0.1-0.1 0-0.1 0 0-0.1-0.1-0.1 0-0.2 0-0.1 0-0.2-0.1-0.2 0-0.3 0c-1.1-0.1-2.2-0.1-3.2-0.1q-1.3 0.1-2.8 0.1c-0.9 0-1.6 0.1-2.7 0-0.5-0.1-1 0-1.3 0-0.6 0.1-1.4 0.1-2.4 0q-0.8 0-1.6 0-1.8 0-3.4 0.1-0.6 0-1.2 0l-5.5-0.1q-2 0-4-0.1-1.6 0-3 0.1-1.4 0-3.1 0c-1.7 0-3.4 0.1-5.2 0.1q-1.8 0-3.7-0.1c-0.6 0-1.1 0-1.5 0.1-0.2 0-0.7 0-1.1 0-2.1-0.1-4.1-0.2-5.8-0.1q-0.3 0-0.7 0c-1.7 0-3.4 0-5 0q-0.6 0-1.2 0 0.1 0.1 0.3 0.2 0.3 0 0.6 0 2.3 0.2 4.3 0.2 3.3 0 7 0.1c1.9 0.1 3.6 0.1 5 0 1.1-0.1 2.6-0.1 4.1 0 0.6 0.1 1.3 0.1 1.8 0.1q0.8 0 1.7 0 2 0.1 3.8 0.1c1.2 0 2.2-0.1 3.4-0.1 1.2 0 3.1 0 4.5 0q2.3-0.1 4.4 0zm-106.2-3.3c0.2 0.2 0.7 0.3 1.2 0.3 1.8 0.2 3.5 0.3 5 0.3 0.7-0.1 1.8-0.1 2.9 0 1.2 0.2 2.4 0.2 3.3 0.1q0.3 0 0.5-0.1c0 0 0.1-0.1 0.1-0.1q-0.2 0-0.4-0.1-0.2 0-0.4 0l-5.9-0.2-1-0.1c-1.8-0.1-3.6-0.1-5.3-0.1zm11.6 2.7c0.9 0.3 0.9 0.3 1.4 0.4 2.3 0.2 4.5 0.4 6.5 0.4q0.7 0 1.1-0.1 0.3 0 0.3-0.1 0 0-0.2-0.1l-0.7-0.2q-2-0.1-3.9-0.2c-1.5 0-2.8 0-4.4 0zm75.5 42.1c0.8 0.4 0.8 0.4 2.3 0.5q1.5 0.1 2.9 0.1 1.6 0 3.3 0 0.4 0.1 0.7 0 0.2 0 0.1-0.1-0.2-0.1-0.7-0.2-0.4-0.1-0.8-0.1h-0.6c-0.8 0-1.5-0.1-2.2-0.1q-0.7 0.1-1.6 0-0.8-0.1-1.7-0.2zm-70.9-44.3q0.4 0.1 0.8 0.2c1.1 0.1 2.3 0.2 3.2 0.2 0.5 0 0.9 0 1.4 0q1.3 0.1 2.5 0.2c0 0 0.2-0.1 0.2-0.1l0.2-0.2q-0.6-0.1-1.1-0.1-1.9-0.1-3.7-0.2c-1.2-0.1-1.7-0.1-2.5-0.1q-0.5 0-1 0.1zm-27 30.4l1.6 0.5c0.6 0 1.1 0 1.4 0q0.6 0 0.8-0.2 0.2 0 0-0.1-0.2-0.1-0.6-0.2-0.5-0.1-1-0.2-0.5-0.1-1-0.1zm13.6-2.5c-1.1-0.1-2.1-0.1-3-0.1-0.6 0-1.3 0-2.1-0.1-1.5-0.1-2.9-0.2-4-0.1 0 0 0 0.1-0.2 0.1-0.2 0 0.5 0.1 0.7 0.1 1.1 0 2.3 0.1 3.3 0.1q0.9 0 2 0 1.4 0.1 2.6 0.1c0 0 0.3 0 0.7-0.1zm114.2-26.1q-0.8-0.2-1.7-0.2-0.8-0.1-1.5-0.1-0.6 0-0.9 0-0.3 0.1-0.2 0.3c0.4 0 0.9 0.1 1.2 0.1 1 0 1.8 0 3.1-0.1zm95.6 7.9q-0.7-0.1-1.3-0.1-0.7-0.1-1.2-0.1c-0.2 0.1-0.1 0.1-0.1 0.2q-0.1 0 0 0 0 0.1 0.1 0.1 0.1 0 0.2 0 0.1 0 0.2 0 0.7 0.1 1.2 0.1 0.6-0.1 0.8-0.1zm6.4 1q-0.1 0-0.3-0.1-0.3-0.1-0.6-0.1-0.6 0-1 0.1c-0.4 0-0.1 0.1 0.3 0.2q0.3 0 0.6 0.1 0.3 0 0.5 0 0.2 0 0.4-0.1 0.1 0 0.1 0zm-186.1-10.4c-0.9-0.2-1.7-0.2-2.5-0.2-0.8-0.1-1-0.1-0.9 0 0.1 0.1 0.7 0.1 1 0.1q0.8 0.1 1.4 0.1 0.6 0 1 0zm199.2 27q-0.8 0-1.5 0-0.1 0-0.1 0-0.1 0.1 0 0.1c0 0 0.3 0.1 0.5 0.1 0.7 0.1 0.7 0 1.1-0.2zm71.5 15c0.3 0.1 0.5 0.2 0.8 0.2q0.2 0 0.4 0 0.1 0.1 0.3 0 0.2 0 0.1-0.1c0 0-0.4-0.1-0.5-0.1q-0.6 0-1.1 0zm-286.9-43c-0.8-0.1-1.5-0.1-2 0 1.2 0.1 1.2 0.1 2 0zm11.7 1.1c-0.7-0.2-1.1-0.2-1.5-0.2q-0.1 0-0.1 0-0.1 0 0 0.1 0.1 0 0.2 0 0.2 0.1 0.3 0.1 0.6 0 1.1 0zm37.8 0c0 0 0 0-0.2 0q-0.1-0.1-0.2-0.1-0.1 0-0.1 0 0 0-0.1 0.1zm26.2 46.2h-0.4 0.2 0.5zm148.5-36.4c-0.2 0-0.3 0-0.4 0q0 0 0 0 0 0.1 0 0.1c0 0 0.2 0 0.3 0zm-24.6 0.3q-0.1 0-0.2 0l-0.1 0.1h0.4zm-214.3 8q-0.2-0.1-0.4-0.1h-0.1c0 0 0.2 0 0.3 0.1q0.1 0 0.2 0zm20.8-19.1h-0.1z"/>
		</g>
	</g>
</svg>