<svg version="1.2" xmlns="http://www.w3.org/2000/svg" viewBox="0 0 98 254" width="98" height="254">
	<title>image</title>
	<style>
		.s0 { fill: none;stroke: #84829a } 
	</style>
	<path id="Layer" class="s0" d="m9 14.2c7-8.5 24.8-21.6 39.6-5.8 14.9 15.7-5.2 45.2-17.1 58-5.8 3.5-18 9.6-20 5.3-2.5-5.3-4-16.5 16.5-26.1 13.2-5.6 41.8-11.7 50.2 9.6 3.9 9.2 4.5 30.7-23.6 42.6l-35.1 15.4m0 0c-13.4 0.6-32.6-5.8-2.5-35.6 9.5-4.6 32.6-14 48.7-14.4 9.2 2 26.9 11.6 24.1 34.6 0.3 4.6-6 16.1-33.7 25-6.3 1.4-20.5 4.4-26.6 4.8l-21.5 3.2zm0 0c8.7-2.5 29.5-6.7 42.1-3.7 15.8 3.7 22.1 0.5 34.6 21.3 2.2 10.6 0.6 32.4-23 34.6-23.7 2.1-39-2-43.7-4.3v-19.7m0 0c17.2 1.6 54.2 0.4 64.2-17 4.9-12.4 5.3-37.8-32.1-39.9-9 0.3-28.3 1.5-33.1 3.2l1 37.7c17.6 1.6 54.5 9.2 61.7 26.7 3.9 10.1 5.1 31.4-20.6 35.6-9.5 0.4-31.1-0.9-41.1-9m0-37.3c10.9 2.7 34.8 10 43.7 18.1 10.7 8.9 26.4 30.9 3.5 47.9-7.2 2.7-26.3 4.8-45.2-8m-2-58v37.3m0 0c12 8.5 36.6 29.1 38.6 43.6 0.9 8.9-1.4 27.4-17 30.4-4 0.7-14 0.6-21.6-5.4l2-47.9m-2-20.7l2 20.7"/>
</svg>